<?xml version="1.0" encoding="utf-8" standalone="no"?>
<!DOCTYPE svg PUBLIC "-//W3C//DTD SVG 1.1//EN"
  "http://www.w3.org/Graphics/SVG/1.1/DTD/svg11.dtd">
<!-- Created with matplotlib (https://matplotlib.org/) -->
<svg height="345.6pt" version="1.1" viewBox="0 0 460.8 345.6" width="460.8pt" xmlns="http://www.w3.org/2000/svg" xmlns:xlink="http://www.w3.org/1999/xlink">
 <defs>
  <style type="text/css">
*{stroke-linecap:butt;stroke-linejoin:round;}
  </style>
 </defs>
 <g id="figure_1">
  <g id="patch_1">
   <path d="M 0 345.6 
L 460.8 345.6 
L 460.8 0 
L 0 0 
z
" style="fill:#ffffff;"/>
  </g>
  <g id="axes_1">
   <g id="patch_2">
    <path d="M 48.035 136.24 
L 228.455404 136.24 
L 228.455404 26.16 
L 48.035 26.16 
z
" style="fill:#ffffff;"/>
   </g>
   <g id="matplotlib.axis_1">
    <g id="xtick_1">
     <g id="line2d_1">
      <defs>
       <path d="M 0 0 
L 0 3.5 
" id="m2ee322a36f" style="stroke:#000000;stroke-width:0.8;"/>
      </defs>
      <g>
       <use style="stroke:#000000;stroke-width:0.8;" x="56.235927" xlink:href="#m2ee322a36f" y="136.24"/>
      </g>
     </g>
     <g id="text_1">
      <!-- 0 -->
      <defs>
       <path d="M 31.78125 66.40625 
Q 24.171875 66.40625 20.328125 58.90625 
Q 16.5 51.421875 16.5 36.375 
Q 16.5 21.390625 20.328125 13.890625 
Q 24.171875 6.390625 31.78125 6.390625 
Q 39.453125 6.390625 43.28125 13.890625 
Q 47.125 21.390625 47.125 36.375 
Q 47.125 51.421875 43.28125 58.90625 
Q 39.453125 66.40625 31.78125 66.40625 
z
M 31.78125 74.21875 
Q 44.046875 74.21875 50.515625 64.515625 
Q 56.984375 54.828125 56.984375 36.375 
Q 56.984375 17.96875 50.515625 8.265625 
Q 44.046875 -1.421875 31.78125 -1.421875 
Q 19.53125 -1.421875 13.0625 8.265625 
Q 6.59375 17.96875 6.59375 36.375 
Q 6.59375 54.828125 13.0625 64.515625 
Q 19.53125 74.21875 31.78125 74.21875 
z
" id="DejaVuSans-48"/>
      </defs>
      <g transform="translate(53.054677 150.838437)scale(0.1 -0.1)">
       <use xlink:href="#DejaVuSans-48"/>
      </g>
     </g>
    </g>
    <g id="xtick_2">
     <g id="line2d_2">
      <g>
       <use style="stroke:#000000;stroke-width:0.8;" x="89.370988" xlink:href="#m2ee322a36f" y="136.24"/>
      </g>
     </g>
     <g id="text_2">
      <!-- 20 -->
      <defs>
       <path d="M 19.1875 8.296875 
L 53.609375 8.296875 
L 53.609375 0 
L 7.328125 0 
L 7.328125 8.296875 
Q 12.9375 14.109375 22.625 23.890625 
Q 32.328125 33.6875 34.8125 36.53125 
Q 39.546875 41.84375 41.421875 45.53125 
Q 43.3125 49.21875 43.3125 52.78125 
Q 43.3125 58.59375 39.234375 62.25 
Q 35.15625 65.921875 28.609375 65.921875 
Q 23.96875 65.921875 18.8125 64.3125 
Q 13.671875 62.703125 7.8125 59.421875 
L 7.8125 69.390625 
Q 13.765625 71.78125 18.9375 73 
Q 24.125 74.21875 28.421875 74.21875 
Q 39.75 74.21875 46.484375 68.546875 
Q 53.21875 62.890625 53.21875 53.421875 
Q 53.21875 48.921875 51.53125 44.890625 
Q 49.859375 40.875 45.40625 35.40625 
Q 44.1875 33.984375 37.640625 27.21875 
Q 31.109375 20.453125 19.1875 8.296875 
z
" id="DejaVuSans-50"/>
      </defs>
      <g transform="translate(83.008488 150.838437)scale(0.1 -0.1)">
       <use xlink:href="#DejaVuSans-50"/>
       <use x="63.623047" xlink:href="#DejaVuSans-48"/>
      </g>
     </g>
    </g>
    <g id="xtick_3">
     <g id="line2d_3">
      <g>
       <use style="stroke:#000000;stroke-width:0.8;" x="122.506048" xlink:href="#m2ee322a36f" y="136.24"/>
      </g>
     </g>
     <g id="text_3">
      <!-- 40 -->
      <defs>
       <path d="M 37.796875 64.3125 
L 12.890625 25.390625 
L 37.796875 25.390625 
z
M 35.203125 72.90625 
L 47.609375 72.90625 
L 47.609375 25.390625 
L 58.015625 25.390625 
L 58.015625 17.1875 
L 47.609375 17.1875 
L 47.609375 0 
L 37.796875 0 
L 37.796875 17.1875 
L 4.890625 17.1875 
L 4.890625 26.703125 
z
" id="DejaVuSans-52"/>
      </defs>
      <g transform="translate(116.143548 150.838437)scale(0.1 -0.1)">
       <use xlink:href="#DejaVuSans-52"/>
       <use x="63.623047" xlink:href="#DejaVuSans-48"/>
      </g>
     </g>
    </g>
    <g id="xtick_4">
     <g id="line2d_4">
      <g>
       <use style="stroke:#000000;stroke-width:0.8;" x="155.641109" xlink:href="#m2ee322a36f" y="136.24"/>
      </g>
     </g>
     <g id="text_4">
      <!-- 60 -->
      <defs>
       <path d="M 33.015625 40.375 
Q 26.375 40.375 22.484375 35.828125 
Q 18.609375 31.296875 18.609375 23.390625 
Q 18.609375 15.53125 22.484375 10.953125 
Q 26.375 6.390625 33.015625 6.390625 
Q 39.65625 6.390625 43.53125 10.953125 
Q 47.40625 15.53125 47.40625 23.390625 
Q 47.40625 31.296875 43.53125 35.828125 
Q 39.65625 40.375 33.015625 40.375 
z
M 52.59375 71.296875 
L 52.59375 62.3125 
Q 48.875 64.0625 45.09375 64.984375 
Q 41.3125 65.921875 37.59375 65.921875 
Q 27.828125 65.921875 22.671875 59.328125 
Q 17.53125 52.734375 16.796875 39.40625 
Q 19.671875 43.65625 24.015625 45.921875 
Q 28.375 48.1875 33.59375 48.1875 
Q 44.578125 48.1875 50.953125 41.515625 
Q 57.328125 34.859375 57.328125 23.390625 
Q 57.328125 12.15625 50.6875 5.359375 
Q 44.046875 -1.421875 33.015625 -1.421875 
Q 20.359375 -1.421875 13.671875 8.265625 
Q 6.984375 17.96875 6.984375 36.375 
Q 6.984375 53.65625 15.1875 63.9375 
Q 23.390625 74.21875 37.203125 74.21875 
Q 40.921875 74.21875 44.703125 73.484375 
Q 48.484375 72.75 52.59375 71.296875 
z
" id="DejaVuSans-54"/>
      </defs>
      <g transform="translate(149.278609 150.838437)scale(0.1 -0.1)">
       <use xlink:href="#DejaVuSans-54"/>
       <use x="63.623047" xlink:href="#DejaVuSans-48"/>
      </g>
     </g>
    </g>
    <g id="xtick_5">
     <g id="line2d_5">
      <g>
       <use style="stroke:#000000;stroke-width:0.8;" x="188.776169" xlink:href="#m2ee322a36f" y="136.24"/>
      </g>
     </g>
     <g id="text_5">
      <!-- 80 -->
      <defs>
       <path d="M 31.78125 34.625 
Q 24.75 34.625 20.71875 30.859375 
Q 16.703125 27.09375 16.703125 20.515625 
Q 16.703125 13.921875 20.71875 10.15625 
Q 24.75 6.390625 31.78125 6.390625 
Q 38.8125 6.390625 42.859375 10.171875 
Q 46.921875 13.96875 46.921875 20.515625 
Q 46.921875 27.09375 42.890625 30.859375 
Q 38.875 34.625 31.78125 34.625 
z
M 21.921875 38.8125 
Q 15.578125 40.375 12.03125 44.71875 
Q 8.5 49.078125 8.5 55.328125 
Q 8.5 64.0625 14.71875 69.140625 
Q 20.953125 74.21875 31.78125 74.21875 
Q 42.671875 74.21875 48.875 69.140625 
Q 55.078125 64.0625 55.078125 55.328125 
Q 55.078125 49.078125 51.53125 44.71875 
Q 48 40.375 41.703125 38.8125 
Q 48.828125 37.15625 52.796875 32.3125 
Q 56.78125 27.484375 56.78125 20.515625 
Q 56.78125 9.90625 50.3125 4.234375 
Q 43.84375 -1.421875 31.78125 -1.421875 
Q 19.734375 -1.421875 13.25 4.234375 
Q 6.78125 9.90625 6.78125 20.515625 
Q 6.78125 27.484375 10.78125 32.3125 
Q 14.796875 37.15625 21.921875 38.8125 
z
M 18.3125 54.390625 
Q 18.3125 48.734375 21.84375 45.5625 
Q 25.390625 42.390625 31.78125 42.390625 
Q 38.140625 42.390625 41.71875 45.5625 
Q 45.3125 48.734375 45.3125 54.390625 
Q 45.3125 60.0625 41.71875 63.234375 
Q 38.140625 66.40625 31.78125 66.40625 
Q 25.390625 66.40625 21.84375 63.234375 
Q 18.3125 60.0625 18.3125 54.390625 
z
" id="DejaVuSans-56"/>
      </defs>
      <g transform="translate(182.413669 150.838437)scale(0.1 -0.1)">
       <use xlink:href="#DejaVuSans-56"/>
       <use x="63.623047" xlink:href="#DejaVuSans-48"/>
      </g>
     </g>
    </g>
    <g id="xtick_6">
     <g id="line2d_6">
      <g>
       <use style="stroke:#000000;stroke-width:0.8;" x="221.911229" xlink:href="#m2ee322a36f" y="136.24"/>
      </g>
     </g>
     <g id="text_6">
      <!-- 100 -->
      <defs>
       <path d="M 12.40625 8.296875 
L 28.515625 8.296875 
L 28.515625 63.921875 
L 10.984375 60.40625 
L 10.984375 69.390625 
L 28.421875 72.90625 
L 38.28125 72.90625 
L 38.28125 8.296875 
L 54.390625 8.296875 
L 54.390625 0 
L 12.40625 0 
z
" id="DejaVuSans-49"/>
      </defs>
      <g transform="translate(212.367479 150.838437)scale(0.1 -0.1)">
       <use xlink:href="#DejaVuSans-49"/>
       <use x="63.623047" xlink:href="#DejaVuSans-48"/>
       <use x="127.246094" xlink:href="#DejaVuSans-48"/>
      </g>
     </g>
    </g>
    <g id="text_7">
     <!-- n -->
     <defs>
      <path d="M 54.890625 33.015625 
L 54.890625 0 
L 45.90625 0 
L 45.90625 32.71875 
Q 45.90625 40.484375 42.875 44.328125 
Q 39.84375 48.1875 33.796875 48.1875 
Q 26.515625 48.1875 22.3125 43.546875 
Q 18.109375 38.921875 18.109375 30.90625 
L 18.109375 0 
L 9.078125 0 
L 9.078125 54.6875 
L 18.109375 54.6875 
L 18.109375 46.1875 
Q 21.34375 51.125 25.703125 53.5625 
Q 30.078125 56 35.796875 56 
Q 45.21875 56 50.046875 50.171875 
Q 54.890625 44.34375 54.890625 33.015625 
z
" id="DejaVuSans-110"/>
     </defs>
     <g transform="translate(135.076452 164.516562)scale(0.1 -0.1)">
      <use xlink:href="#DejaVuSans-110"/>
     </g>
    </g>
   </g>
   <g id="matplotlib.axis_2">
    <g id="ytick_1">
     <g id="line2d_7">
      <defs>
       <path d="M 0 0 
L -3.5 0 
" id="md187687237" style="stroke:#000000;stroke-width:0.8;"/>
      </defs>
      <g>
       <use style="stroke:#000000;stroke-width:0.8;" x="48.035" xlink:href="#md187687237" y="131.236364"/>
      </g>
     </g>
     <g id="text_8">
      <!-- 0.0 -->
      <defs>
       <path d="M 10.6875 12.40625 
L 21 12.40625 
L 21 0 
L 10.6875 0 
z
" id="DejaVuSans-46"/>
      </defs>
      <g transform="translate(25.131875 135.035582)scale(0.1 -0.1)">
       <use xlink:href="#DejaVuSans-48"/>
       <use x="63.623047" xlink:href="#DejaVuSans-46"/>
       <use x="95.410156" xlink:href="#DejaVuSans-48"/>
      </g>
     </g>
    </g>
    <g id="ytick_2">
     <g id="line2d_8">
      <g>
       <use style="stroke:#000000;stroke-width:0.8;" x="48.035" xlink:href="#md187687237" y="97.878782"/>
      </g>
     </g>
     <g id="text_9">
      <!-- 0.5 -->
      <defs>
       <path d="M 10.796875 72.90625 
L 49.515625 72.90625 
L 49.515625 64.59375 
L 19.828125 64.59375 
L 19.828125 46.734375 
Q 21.96875 47.46875 24.109375 47.828125 
Q 26.265625 48.1875 28.421875 48.1875 
Q 40.625 48.1875 47.75 41.5 
Q 54.890625 34.8125 54.890625 23.390625 
Q 54.890625 11.625 47.5625 5.09375 
Q 40.234375 -1.421875 26.90625 -1.421875 
Q 22.3125 -1.421875 17.546875 -0.640625 
Q 12.796875 0.140625 7.71875 1.703125 
L 7.71875 11.625 
Q 12.109375 9.234375 16.796875 8.0625 
Q 21.484375 6.890625 26.703125 6.890625 
Q 35.15625 6.890625 40.078125 11.328125 
Q 45.015625 15.765625 45.015625 23.390625 
Q 45.015625 31 40.078125 35.4375 
Q 35.15625 39.890625 26.703125 39.890625 
Q 22.75 39.890625 18.8125 39.015625 
Q 14.890625 38.140625 10.796875 36.28125 
z
" id="DejaVuSans-53"/>
      </defs>
      <g transform="translate(25.131875 101.678001)scale(0.1 -0.1)">
       <use xlink:href="#DejaVuSans-48"/>
       <use x="63.623047" xlink:href="#DejaVuSans-46"/>
       <use x="95.410156" xlink:href="#DejaVuSans-53"/>
      </g>
     </g>
    </g>
    <g id="ytick_3">
     <g id="line2d_9">
      <g>
       <use style="stroke:#000000;stroke-width:0.8;" x="48.035" xlink:href="#md187687237" y="64.521201"/>
      </g>
     </g>
     <g id="text_10">
      <!-- 1.0 -->
      <g transform="translate(25.131875 68.32042)scale(0.1 -0.1)">
       <use xlink:href="#DejaVuSans-49"/>
       <use x="63.623047" xlink:href="#DejaVuSans-46"/>
       <use x="95.410156" xlink:href="#DejaVuSans-48"/>
      </g>
     </g>
    </g>
    <g id="ytick_4">
     <g id="line2d_10">
      <g>
       <use style="stroke:#000000;stroke-width:0.8;" x="48.035" xlink:href="#md187687237" y="31.16362"/>
      </g>
     </g>
     <g id="text_11">
      <!-- 1.5 -->
      <g transform="translate(25.131875 34.962838)scale(0.1 -0.1)">
       <use xlink:href="#DejaVuSans-49"/>
       <use x="63.623047" xlink:href="#DejaVuSans-46"/>
       <use x="95.410156" xlink:href="#DejaVuSans-53"/>
      </g>
     </g>
    </g>
    <g id="text_12">
     <!-- difference |g(x)-f(x)| -->
     <defs>
      <path d="M 45.40625 46.390625 
L 45.40625 75.984375 
L 54.390625 75.984375 
L 54.390625 0 
L 45.40625 0 
L 45.40625 8.203125 
Q 42.578125 3.328125 38.25 0.953125 
Q 33.9375 -1.421875 27.875 -1.421875 
Q 17.96875 -1.421875 11.734375 6.484375 
Q 5.515625 14.40625 5.515625 27.296875 
Q 5.515625 40.1875 11.734375 48.09375 
Q 17.96875 56 27.875 56 
Q 33.9375 56 38.25 53.625 
Q 42.578125 51.265625 45.40625 46.390625 
z
M 14.796875 27.296875 
Q 14.796875 17.390625 18.875 11.75 
Q 22.953125 6.109375 30.078125 6.109375 
Q 37.203125 6.109375 41.296875 11.75 
Q 45.40625 17.390625 45.40625 27.296875 
Q 45.40625 37.203125 41.296875 42.84375 
Q 37.203125 48.484375 30.078125 48.484375 
Q 22.953125 48.484375 18.875 42.84375 
Q 14.796875 37.203125 14.796875 27.296875 
z
" id="DejaVuSans-100"/>
      <path d="M 9.421875 54.6875 
L 18.40625 54.6875 
L 18.40625 0 
L 9.421875 0 
z
M 9.421875 75.984375 
L 18.40625 75.984375 
L 18.40625 64.59375 
L 9.421875 64.59375 
z
" id="DejaVuSans-105"/>
      <path d="M 37.109375 75.984375 
L 37.109375 68.5 
L 28.515625 68.5 
Q 23.6875 68.5 21.796875 66.546875 
Q 19.921875 64.59375 19.921875 59.515625 
L 19.921875 54.6875 
L 34.71875 54.6875 
L 34.71875 47.703125 
L 19.921875 47.703125 
L 19.921875 0 
L 10.890625 0 
L 10.890625 47.703125 
L 2.296875 47.703125 
L 2.296875 54.6875 
L 10.890625 54.6875 
L 10.890625 58.5 
Q 10.890625 67.625 15.140625 71.796875 
Q 19.390625 75.984375 28.609375 75.984375 
z
" id="DejaVuSans-102"/>
      <path d="M 56.203125 29.59375 
L 56.203125 25.203125 
L 14.890625 25.203125 
Q 15.484375 15.921875 20.484375 11.0625 
Q 25.484375 6.203125 34.421875 6.203125 
Q 39.59375 6.203125 44.453125 7.46875 
Q 49.3125 8.734375 54.109375 11.28125 
L 54.109375 2.78125 
Q 49.265625 0.734375 44.1875 -0.34375 
Q 39.109375 -1.421875 33.890625 -1.421875 
Q 20.796875 -1.421875 13.15625 6.1875 
Q 5.515625 13.8125 5.515625 26.8125 
Q 5.515625 40.234375 12.765625 48.109375 
Q 20.015625 56 32.328125 56 
Q 43.359375 56 49.78125 48.890625 
Q 56.203125 41.796875 56.203125 29.59375 
z
M 47.21875 32.234375 
Q 47.125 39.59375 43.09375 43.984375 
Q 39.0625 48.390625 32.421875 48.390625 
Q 24.90625 48.390625 20.390625 44.140625 
Q 15.875 39.890625 15.1875 32.171875 
z
" id="DejaVuSans-101"/>
      <path d="M 41.109375 46.296875 
Q 39.59375 47.171875 37.8125 47.578125 
Q 36.03125 48 33.890625 48 
Q 26.265625 48 22.1875 43.046875 
Q 18.109375 38.09375 18.109375 28.8125 
L 18.109375 0 
L 9.078125 0 
L 9.078125 54.6875 
L 18.109375 54.6875 
L 18.109375 46.1875 
Q 20.953125 51.171875 25.484375 53.578125 
Q 30.03125 56 36.53125 56 
Q 37.453125 56 38.578125 55.875 
Q 39.703125 55.765625 41.0625 55.515625 
z
" id="DejaVuSans-114"/>
      <path d="M 48.78125 52.59375 
L 48.78125 44.1875 
Q 44.96875 46.296875 41.140625 47.34375 
Q 37.3125 48.390625 33.40625 48.390625 
Q 24.65625 48.390625 19.8125 42.84375 
Q 14.984375 37.3125 14.984375 27.296875 
Q 14.984375 17.28125 19.8125 11.734375 
Q 24.65625 6.203125 33.40625 6.203125 
Q 37.3125 6.203125 41.140625 7.25 
Q 44.96875 8.296875 48.78125 10.40625 
L 48.78125 2.09375 
Q 45.015625 0.34375 40.984375 -0.53125 
Q 36.96875 -1.421875 32.421875 -1.421875 
Q 20.0625 -1.421875 12.78125 6.34375 
Q 5.515625 14.109375 5.515625 27.296875 
Q 5.515625 40.671875 12.859375 48.328125 
Q 20.21875 56 33.015625 56 
Q 37.15625 56 41.109375 55.140625 
Q 45.0625 54.296875 48.78125 52.59375 
z
" id="DejaVuSans-99"/>
      <path id="DejaVuSans-32"/>
      <path d="M 21 76.421875 
L 21 -23.578125 
L 12.703125 -23.578125 
L 12.703125 76.421875 
z
" id="DejaVuSans-124"/>
      <path d="M 45.40625 27.984375 
Q 45.40625 37.75 41.375 43.109375 
Q 37.359375 48.484375 30.078125 48.484375 
Q 22.859375 48.484375 18.828125 43.109375 
Q 14.796875 37.75 14.796875 27.984375 
Q 14.796875 18.265625 18.828125 12.890625 
Q 22.859375 7.515625 30.078125 7.515625 
Q 37.359375 7.515625 41.375 12.890625 
Q 45.40625 18.265625 45.40625 27.984375 
z
M 54.390625 6.78125 
Q 54.390625 -7.171875 48.1875 -13.984375 
Q 42 -20.796875 29.203125 -20.796875 
Q 24.46875 -20.796875 20.265625 -20.09375 
Q 16.0625 -19.390625 12.109375 -17.921875 
L 12.109375 -9.1875 
Q 16.0625 -11.328125 19.921875 -12.34375 
Q 23.78125 -13.375 27.78125 -13.375 
Q 36.625 -13.375 41.015625 -8.765625 
Q 45.40625 -4.15625 45.40625 5.171875 
L 45.40625 9.625 
Q 42.625 4.78125 38.28125 2.390625 
Q 33.9375 0 27.875 0 
Q 17.828125 0 11.671875 7.65625 
Q 5.515625 15.328125 5.515625 27.984375 
Q 5.515625 40.671875 11.671875 48.328125 
Q 17.828125 56 27.875 56 
Q 33.9375 56 38.28125 53.609375 
Q 42.625 51.21875 45.40625 46.390625 
L 45.40625 54.6875 
L 54.390625 54.6875 
z
" id="DejaVuSans-103"/>
      <path d="M 31 75.875 
Q 24.46875 64.65625 21.28125 53.65625 
Q 18.109375 42.671875 18.109375 31.390625 
Q 18.109375 20.125 21.3125 9.0625 
Q 24.515625 -2 31 -13.1875 
L 23.1875 -13.1875 
Q 15.875 -1.703125 12.234375 9.375 
Q 8.59375 20.453125 8.59375 31.390625 
Q 8.59375 42.28125 12.203125 53.3125 
Q 15.828125 64.359375 23.1875 75.875 
z
" id="DejaVuSans-40"/>
      <path d="M 54.890625 54.6875 
L 35.109375 28.078125 
L 55.90625 0 
L 45.3125 0 
L 29.390625 21.484375 
L 13.484375 0 
L 2.875 0 
L 24.125 28.609375 
L 4.6875 54.6875 
L 15.28125 54.6875 
L 29.78125 35.203125 
L 44.28125 54.6875 
z
" id="DejaVuSans-120"/>
      <path d="M 8.015625 75.875 
L 15.828125 75.875 
Q 23.140625 64.359375 26.78125 53.3125 
Q 30.421875 42.28125 30.421875 31.390625 
Q 30.421875 20.453125 26.78125 9.375 
Q 23.140625 -1.703125 15.828125 -13.1875 
L 8.015625 -13.1875 
Q 14.5 -2 17.703125 9.0625 
Q 20.90625 20.125 20.90625 31.390625 
Q 20.90625 42.671875 17.703125 53.65625 
Q 14.5 64.65625 8.015625 75.875 
z
" id="DejaVuSans-41"/>
      <path d="M 4.890625 31.390625 
L 31.203125 31.390625 
L 31.203125 23.390625 
L 4.890625 23.390625 
z
" id="DejaVuSans-45"/>
     </defs>
     <g transform="translate(18.774063 131.903125)rotate(-90)scale(0.1 -0.1)">
      <use xlink:href="#DejaVuSans-100"/>
      <use x="63.476562" xlink:href="#DejaVuSans-105"/>
      <use x="91.259766" xlink:href="#DejaVuSans-102"/>
      <use x="126.464844" xlink:href="#DejaVuSans-102"/>
      <use x="161.669922" xlink:href="#DejaVuSans-101"/>
      <use x="223.193359" xlink:href="#DejaVuSans-114"/>
      <use x="264.275391" xlink:href="#DejaVuSans-101"/>
      <use x="325.798828" xlink:href="#DejaVuSans-110"/>
      <use x="389.177734" xlink:href="#DejaVuSans-99"/>
      <use x="444.158203" xlink:href="#DejaVuSans-101"/>
      <use x="505.681641" xlink:href="#DejaVuSans-32"/>
      <use x="537.46875" xlink:href="#DejaVuSans-124"/>
      <use x="571.160156" xlink:href="#DejaVuSans-103"/>
      <use x="634.636719" xlink:href="#DejaVuSans-40"/>
      <use x="673.650391" xlink:href="#DejaVuSans-120"/>
      <use x="732.830078" xlink:href="#DejaVuSans-41"/>
      <use x="771.84375" xlink:href="#DejaVuSans-45"/>
      <use x="807.927734" xlink:href="#DejaVuSans-102"/>
      <use x="843.132812" xlink:href="#DejaVuSans-40"/>
      <use x="882.146484" xlink:href="#DejaVuSans-120"/>
      <use x="941.326172" xlink:href="#DejaVuSans-41"/>
      <use x="980.339844" xlink:href="#DejaVuSans-124"/>
     </g>
    </g>
    <g id="text_13">
     <!-- 1e−7 -->
     <defs>
      <path d="M 10.59375 35.5 
L 73.1875 35.5 
L 73.1875 27.203125 
L 10.59375 27.203125 
z
" id="DejaVuSans-8722"/>
      <path d="M 8.203125 72.90625 
L 55.078125 72.90625 
L 55.078125 68.703125 
L 28.609375 0 
L 18.3125 0 
L 43.21875 64.59375 
L 8.203125 64.59375 
z
" id="DejaVuSans-55"/>
     </defs>
     <g transform="translate(48.035 23.16)scale(0.1 -0.1)">
      <use xlink:href="#DejaVuSans-49"/>
      <use x="63.623047" xlink:href="#DejaVuSans-101"/>
      <use x="125.146484" xlink:href="#DejaVuSans-8722"/>
      <use x="208.935547" xlink:href="#DejaVuSans-55"/>
     </g>
    </g>
   </g>
   <g id="line2d_11">
    <path clip-path="url(#pba9c9c5045)" d="M 56.235927 31.163636 
L 57.89268 81.200038 
L 59.549433 106.218191 
L 61.206187 118.72728 
L 62.86294 124.981821 
L 64.519693 128.109092 
L 66.176446 129.672728 
L 67.833199 130.454546 
L 69.489952 130.845455 
L 71.146705 131.040909 
L 72.803458 131.138636 
L 74.460211 131.1875 
L 76.116964 131.211932 
L 77.773717 131.224148 
L 79.43047 131.230256 
L 81.087223 131.23331 
L 82.743976 131.234837 
L 84.400729 131.2356 
L 86.057482 131.235982 
L 87.714235 131.236173 
L 89.370988 131.236268 
L 91.027741 131.236316 
L 92.684494 131.23634 
L 94.341247 131.236352 
L 95.998 131.236358 
L 97.654753 131.236361 
L 99.311506 131.236362 
L 100.968259 131.236363 
L 102.625012 131.236363 
L 104.281765 131.236363 
L 105.938518 131.236363 
L 107.595271 131.236364 
L 109.252024 131.236364 
L 110.908777 131.236364 
L 112.56553 131.236364 
L 114.222283 131.236364 
L 115.879036 131.236364 
L 117.535789 131.236364 
L 119.192542 131.236364 
L 120.849295 131.236364 
L 122.506048 131.236364 
L 124.162801 131.236364 
L 125.819554 131.236364 
L 127.476307 131.236364 
L 129.13306 131.236364 
L 130.789813 131.236364 
L 132.446566 131.236364 
L 134.103319 131.236364 
L 135.760072 131.236364 
L 137.416825 131.236364 
L 139.073578 131.236364 
L 140.730331 131.236364 
L 142.387084 131.236364 
L 144.043837 131.236364 
L 145.700591 131.236364 
L 147.357344 131.236364 
L 149.014097 131.236364 
L 150.67085 131.236364 
L 152.327603 131.236364 
L 153.984356 131.236364 
L 155.641109 131.236364 
L 157.297862 131.236364 
L 158.954615 131.236364 
L 160.611368 131.236364 
L 162.268121 131.236364 
L 163.924874 131.236364 
L 165.581627 131.236364 
L 167.23838 131.236364 
L 168.895133 131.236364 
L 170.551886 131.236364 
L 172.208639 131.236364 
L 173.865392 131.236364 
L 175.522145 131.236364 
L 177.178898 131.236364 
L 178.835651 131.236364 
L 180.492404 131.236364 
L 182.149157 131.236364 
L 183.80591 131.236364 
L 185.462663 131.236364 
L 187.119416 131.236364 
L 188.776169 131.236364 
L 190.432922 131.236364 
L 192.089675 131.236364 
L 193.746428 131.236364 
L 195.403181 131.236364 
L 197.059934 131.236364 
L 198.716687 131.236364 
L 200.37344 131.236364 
L 202.030193 131.236364 
L 203.686946 131.236364 
L 205.343699 131.236364 
L 207.000452 131.236364 
L 208.657205 131.236364 
L 210.313958 131.236364 
L 211.970711 131.236364 
L 213.627464 131.236364 
L 215.284217 131.236364 
L 216.94097 131.236364 
L 218.597723 131.236364 
L 220.254476 131.236364 
" style="fill:none;stroke:#1f77b4;stroke-linecap:square;stroke-width:1.5;"/>
   </g>
   <g id="patch_3">
    <path d="M 48.035 136.24 
L 48.035 26.16 
" style="fill:none;stroke:#000000;stroke-linecap:square;stroke-linejoin:miter;stroke-width:0.8;"/>
   </g>
   <g id="patch_4">
    <path d="M 228.455404 136.24 
L 228.455404 26.16 
" style="fill:none;stroke:#000000;stroke-linecap:square;stroke-linejoin:miter;stroke-width:0.8;"/>
   </g>
   <g id="patch_5">
    <path d="M 48.035 136.24 
L 228.455404 136.24 
" style="fill:none;stroke:#000000;stroke-linecap:square;stroke-linejoin:miter;stroke-width:0.8;"/>
   </g>
   <g id="patch_6">
    <path d="M 48.035 26.16 
L 228.455404 26.16 
" style="fill:none;stroke:#000000;stroke-linecap:square;stroke-linejoin:miter;stroke-width:0.8;"/>
   </g>
   <g id="text_14">
    <!-- μ = 2.5 -->
    <defs>
     <path d="M 8.5 -20.796875 
L 8.5 54.6875 
L 17.484375 54.6875 
L 17.484375 20.703125 
Q 17.484375 13.625 20.84375 10 
Q 24.21875 6.390625 30.8125 6.390625 
Q 38.03125 6.390625 41.671875 10.484375 
Q 45.3125 14.59375 45.3125 22.796875 
L 45.3125 54.6875 
L 54.296875 54.6875 
L 54.296875 12.59375 
Q 54.296875 9.671875 55.140625 8.28125 
Q 56 6.890625 57.8125 6.890625 
Q 58.25 6.890625 59.03125 7.15625 
Q 59.8125 7.421875 61.1875 8.015625 
L 61.1875 0.78125 
Q 59.1875 -0.34375 57.390625 -0.875 
Q 55.609375 -1.421875 53.90625 -1.421875 
Q 50.53125 -1.421875 48.53125 0.484375 
Q 46.53125 2.390625 45.796875 6.296875 
Q 43.359375 2.4375 39.8125 0.5 
Q 36.28125 -1.421875 31.5 -1.421875 
Q 26.515625 -1.421875 23.015625 0.484375 
Q 19.53125 2.390625 17.484375 6.203125 
L 17.484375 -20.796875 
z
" id="DejaVuSans-956"/>
     <path d="M 10.59375 45.40625 
L 73.1875 45.40625 
L 73.1875 37.203125 
L 10.59375 37.203125 
z
M 10.59375 25.484375 
L 73.1875 25.484375 
L 73.1875 17.1875 
L 10.59375 17.1875 
z
" id="DejaVuSans-61"/>
    </defs>
    <g transform="translate(116.044264 20.16)scale(0.12 -0.12)">
     <use xlink:href="#DejaVuSans-956"/>
     <use x="63.623047" xlink:href="#DejaVuSans-32"/>
     <use x="95.410156" xlink:href="#DejaVuSans-61"/>
     <use x="179.199219" xlink:href="#DejaVuSans-32"/>
     <use x="210.986328" xlink:href="#DejaVuSans-50"/>
     <use x="274.609375" xlink:href="#DejaVuSans-46"/>
     <use x="306.396484" xlink:href="#DejaVuSans-53"/>
    </g>
   </g>
  </g>
  <g id="axes_2">
   <g id="patch_7">
    <path d="M 265.905 136.24 
L 446.325404 136.24 
L 446.325404 26.16 
L 265.905 26.16 
z
" style="fill:#ffffff;"/>
   </g>
   <g id="matplotlib.axis_3">
    <g id="xtick_7">
     <g id="line2d_12">
      <g>
       <use style="stroke:#000000;stroke-width:0.8;" x="274.105927" xlink:href="#m2ee322a36f" y="136.24"/>
      </g>
     </g>
     <g id="text_15">
      <!-- 0 -->
      <g transform="translate(270.924677 150.838437)scale(0.1 -0.1)">
       <use xlink:href="#DejaVuSans-48"/>
      </g>
     </g>
    </g>
    <g id="xtick_8">
     <g id="line2d_13">
      <g>
       <use style="stroke:#000000;stroke-width:0.8;" x="307.240988" xlink:href="#m2ee322a36f" y="136.24"/>
      </g>
     </g>
     <g id="text_16">
      <!-- 20 -->
      <g transform="translate(300.878488 150.838437)scale(0.1 -0.1)">
       <use xlink:href="#DejaVuSans-50"/>
       <use x="63.623047" xlink:href="#DejaVuSans-48"/>
      </g>
     </g>
    </g>
    <g id="xtick_9">
     <g id="line2d_14">
      <g>
       <use style="stroke:#000000;stroke-width:0.8;" x="340.376048" xlink:href="#m2ee322a36f" y="136.24"/>
      </g>
     </g>
     <g id="text_17">
      <!-- 40 -->
      <g transform="translate(334.013548 150.838437)scale(0.1 -0.1)">
       <use xlink:href="#DejaVuSans-52"/>
       <use x="63.623047" xlink:href="#DejaVuSans-48"/>
      </g>
     </g>
    </g>
    <g id="xtick_10">
     <g id="line2d_15">
      <g>
       <use style="stroke:#000000;stroke-width:0.8;" x="373.511109" xlink:href="#m2ee322a36f" y="136.24"/>
      </g>
     </g>
     <g id="text_18">
      <!-- 60 -->
      <g transform="translate(367.148609 150.838437)scale(0.1 -0.1)">
       <use xlink:href="#DejaVuSans-54"/>
       <use x="63.623047" xlink:href="#DejaVuSans-48"/>
      </g>
     </g>
    </g>
    <g id="xtick_11">
     <g id="line2d_16">
      <g>
       <use style="stroke:#000000;stroke-width:0.8;" x="406.646169" xlink:href="#m2ee322a36f" y="136.24"/>
      </g>
     </g>
     <g id="text_19">
      <!-- 80 -->
      <g transform="translate(400.283669 150.838437)scale(0.1 -0.1)">
       <use xlink:href="#DejaVuSans-56"/>
       <use x="63.623047" xlink:href="#DejaVuSans-48"/>
      </g>
     </g>
    </g>
    <g id="xtick_12">
     <g id="line2d_17">
      <g>
       <use style="stroke:#000000;stroke-width:0.8;" x="439.781229" xlink:href="#m2ee322a36f" y="136.24"/>
      </g>
     </g>
     <g id="text_20">
      <!-- 100 -->
      <g transform="translate(430.237479 150.838437)scale(0.1 -0.1)">
       <use xlink:href="#DejaVuSans-49"/>
       <use x="63.623047" xlink:href="#DejaVuSans-48"/>
       <use x="127.246094" xlink:href="#DejaVuSans-48"/>
      </g>
     </g>
    </g>
    <g id="text_21">
     <!-- n -->
     <g transform="translate(352.946452 164.516562)scale(0.1 -0.1)">
      <use xlink:href="#DejaVuSans-110"/>
     </g>
    </g>
   </g>
   <g id="matplotlib.axis_4">
    <g id="ytick_5">
     <g id="line2d_18">
      <g>
       <use style="stroke:#000000;stroke-width:0.8;" x="265.905" xlink:href="#md187687237" y="131.396176"/>
      </g>
     </g>
     <g id="text_22">
      <!-- 0.0 -->
      <g transform="translate(243.001875 135.195394)scale(0.1 -0.1)">
       <use xlink:href="#DejaVuSans-48"/>
       <use x="63.623047" xlink:href="#DejaVuSans-46"/>
       <use x="95.410156" xlink:href="#DejaVuSans-48"/>
      </g>
     </g>
    </g>
    <g id="ytick_6">
     <g id="line2d_19">
      <g>
       <use style="stroke:#000000;stroke-width:0.8;" x="265.905" xlink:href="#md187687237" y="103.553799"/>
      </g>
     </g>
     <g id="text_23">
      <!-- 0.5 -->
      <g transform="translate(243.001875 107.353018)scale(0.1 -0.1)">
       <use xlink:href="#DejaVuSans-48"/>
       <use x="63.623047" xlink:href="#DejaVuSans-46"/>
       <use x="95.410156" xlink:href="#DejaVuSans-53"/>
      </g>
     </g>
    </g>
    <g id="ytick_7">
     <g id="line2d_20">
      <g>
       <use style="stroke:#000000;stroke-width:0.8;" x="265.905" xlink:href="#md187687237" y="75.711422"/>
      </g>
     </g>
     <g id="text_24">
      <!-- 1.0 -->
      <g transform="translate(243.001875 79.510641)scale(0.1 -0.1)">
       <use xlink:href="#DejaVuSans-49"/>
       <use x="63.623047" xlink:href="#DejaVuSans-46"/>
       <use x="95.410156" xlink:href="#DejaVuSans-48"/>
      </g>
     </g>
    </g>
    <g id="ytick_8">
     <g id="line2d_21">
      <g>
       <use style="stroke:#000000;stroke-width:0.8;" x="265.905" xlink:href="#md187687237" y="47.869046"/>
      </g>
     </g>
     <g id="text_25">
      <!-- 1.5 -->
      <g transform="translate(243.001875 51.668264)scale(0.1 -0.1)">
       <use xlink:href="#DejaVuSans-49"/>
       <use x="63.623047" xlink:href="#DejaVuSans-46"/>
       <use x="95.410156" xlink:href="#DejaVuSans-53"/>
      </g>
     </g>
    </g>
    <g id="text_26">
     <!-- 1e−7 -->
     <g transform="translate(265.905 23.16)scale(0.1 -0.1)">
      <use xlink:href="#DejaVuSans-49"/>
      <use x="63.623047" xlink:href="#DejaVuSans-101"/>
      <use x="125.146484" xlink:href="#DejaVuSans-8722"/>
      <use x="208.935547" xlink:href="#DejaVuSans-55"/>
     </g>
    </g>
   </g>
   <g id="line2d_22">
    <path clip-path="url(#p03d165f8da)" d="M 274.105927 31.163636 
L 275.76268 119.368325 
L 277.419433 113.440999 
L 279.076187 124.469536 
L 280.73294 121.521633 
L 282.389693 126.618401 
L 284.046446 124.788772 
L 285.703199 127.803528 
L 287.359952 126.538275 
L 289.016705 128.550385 
L 290.673458 127.615784 
L 292.330211 129.061193 
L 293.986964 128.339098 
L 295.643717 129.430683 
L 297.30047 128.854166 
L 298.957223 129.709139 
L 300.613976 129.237147 
L 302.270729 129.92569 
L 303.927482 129.531511 
L 305.584235 130.098348 
L 307.240988 129.763788 
L 308.897741 130.23883 
L 310.554494 129.951036 
L 312.211247 130.355075 
L 313.868 130.10469 
L 315.524753 130.452643 
L 317.181506 130.23268 
L 318.838259 130.535539 
L 320.495012 130.340672 
L 322.151765 130.606718 
L 323.808518 130.432809 
L 325.465271 130.668404 
L 327.122024 130.512187 
L 328.778777 130.722301 
L 330.43553 130.581164 
L 332.092283 130.769736 
L 333.749036 130.641563 
L 335.405789 130.811757 
L 337.062542 130.694812 
L 338.719295 130.8492 
L 340.376048 130.742048 
L 342.032801 130.882742 
L 343.689554 130.784186 
L 345.346307 130.912935 
L 347.00306 130.821966 
L 348.659813 130.940234 
L 350.316566 130.855996 
L 351.973319 130.965017 
L 353.630072 130.88678 
L 355.286825 130.9876 
L 356.943578 130.914737 
L 358.600331 131.00825 
L 360.257084 130.940219 
L 361.913837 131.027192 
L 363.570591 130.963522 
L 365.227344 131.04462 
L 366.884097 130.984899 
L 368.54085 131.0607 
L 370.197603 131.004568 
L 371.854356 131.075574 
L 373.511109 131.022713 
L 375.167862 131.089366 
L 376.824615 131.039495 
L 378.481368 131.102185 
L 380.138121 131.055054 
L 381.794874 131.114124 
L 383.451627 131.069512 
L 385.10838 131.125267 
L 386.765133 131.082974 
L 388.421886 131.135686 
L 390.078639 131.095535 
L 391.735392 131.145446 
L 393.392145 131.107276 
L 395.048898 131.154605 
L 396.705651 131.118271 
L 398.362404 131.163213 
L 400.019157 131.128585 
L 401.67591 131.171316 
L 403.332663 131.138276 
L 404.989416 131.178955 
L 406.646169 131.147394 
L 408.302922 131.186166 
L 409.959675 131.155987 
L 411.616428 131.192983 
L 413.273181 131.164096 
L 414.929934 131.199435 
L 416.586687 131.171758 
L 418.24344 131.205549 
L 419.900193 131.179007 
L 421.556946 131.21135 
L 423.213699 131.185874 
L 424.870452 131.216859 
L 426.527205 131.192385 
L 428.183958 131.222098 
L 429.840711 131.198568 
L 431.497464 131.227084 
L 433.154217 131.204443 
L 434.81097 131.231834 
L 436.467723 131.210033 
L 438.124476 131.236364 
" style="fill:none;stroke:#1f77b4;stroke-linecap:square;stroke-width:1.5;"/>
   </g>
   <g id="patch_8">
    <path d="M 265.905 136.24 
L 265.905 26.16 
" style="fill:none;stroke:#000000;stroke-linecap:square;stroke-linejoin:miter;stroke-width:0.8;"/>
   </g>
   <g id="patch_9">
    <path d="M 446.325404 136.24 
L 446.325404 26.16 
" style="fill:none;stroke:#000000;stroke-linecap:square;stroke-linejoin:miter;stroke-width:0.8;"/>
   </g>
   <g id="patch_10">
    <path d="M 265.905 136.24 
L 446.325404 136.24 
" style="fill:none;stroke:#000000;stroke-linecap:square;stroke-linejoin:miter;stroke-width:0.8;"/>
   </g>
   <g id="patch_11">
    <path d="M 265.905 26.16 
L 446.325404 26.16 
" style="fill:none;stroke:#000000;stroke-linecap:square;stroke-linejoin:miter;stroke-width:0.8;"/>
   </g>
   <g id="text_27">
    <!-- μ = 3.00 -->
    <defs>
     <path d="M 40.578125 39.3125 
Q 47.65625 37.796875 51.625 33 
Q 55.609375 28.21875 55.609375 21.1875 
Q 55.609375 10.40625 48.1875 4.484375 
Q 40.765625 -1.421875 27.09375 -1.421875 
Q 22.515625 -1.421875 17.65625 -0.515625 
Q 12.796875 0.390625 7.625 2.203125 
L 7.625 11.71875 
Q 11.71875 9.328125 16.59375 8.109375 
Q 21.484375 6.890625 26.8125 6.890625 
Q 36.078125 6.890625 40.9375 10.546875 
Q 45.796875 14.203125 45.796875 21.1875 
Q 45.796875 27.640625 41.28125 31.265625 
Q 36.765625 34.90625 28.71875 34.90625 
L 20.21875 34.90625 
L 20.21875 43.015625 
L 29.109375 43.015625 
Q 36.375 43.015625 40.234375 45.921875 
Q 44.09375 48.828125 44.09375 54.296875 
Q 44.09375 59.90625 40.109375 62.90625 
Q 36.140625 65.921875 28.71875 65.921875 
Q 24.65625 65.921875 20.015625 65.03125 
Q 15.375 64.15625 9.8125 62.3125 
L 9.8125 71.09375 
Q 15.4375 72.65625 20.34375 73.4375 
Q 25.25 74.21875 29.59375 74.21875 
Q 40.828125 74.21875 47.359375 69.109375 
Q 53.90625 64.015625 53.90625 55.328125 
Q 53.90625 49.265625 50.4375 45.09375 
Q 46.96875 40.921875 40.578125 39.3125 
z
" id="DejaVuSans-51"/>
    </defs>
    <g transform="translate(330.096764 20.16)scale(0.12 -0.12)">
     <use xlink:href="#DejaVuSans-956"/>
     <use x="63.623047" xlink:href="#DejaVuSans-32"/>
     <use x="95.410156" xlink:href="#DejaVuSans-61"/>
     <use x="179.199219" xlink:href="#DejaVuSans-32"/>
     <use x="210.986328" xlink:href="#DejaVuSans-51"/>
     <use x="274.609375" xlink:href="#DejaVuSans-46"/>
     <use x="306.396484" xlink:href="#DejaVuSans-48"/>
     <use x="370.019531" xlink:href="#DejaVuSans-48"/>
    </g>
   </g>
  </g>
  <g id="axes_3">
   <g id="patch_12">
    <path d="M 48.035 303.64 
L 228.455404 303.64 
L 228.455404 193.56 
L 48.035 193.56 
z
" style="fill:#ffffff;"/>
   </g>
   <g id="matplotlib.axis_5">
    <g id="xtick_13">
     <g id="line2d_23">
      <g>
       <use style="stroke:#000000;stroke-width:0.8;" x="56.235927" xlink:href="#m2ee322a36f" y="303.64"/>
      </g>
     </g>
     <g id="text_28">
      <!-- 0 -->
      <g transform="translate(53.054677 318.238437)scale(0.1 -0.1)">
       <use xlink:href="#DejaVuSans-48"/>
      </g>
     </g>
    </g>
    <g id="xtick_14">
     <g id="line2d_24">
      <g>
       <use style="stroke:#000000;stroke-width:0.8;" x="89.370988" xlink:href="#m2ee322a36f" y="303.64"/>
      </g>
     </g>
     <g id="text_29">
      <!-- 20 -->
      <g transform="translate(83.008488 318.238437)scale(0.1 -0.1)">
       <use xlink:href="#DejaVuSans-50"/>
       <use x="63.623047" xlink:href="#DejaVuSans-48"/>
      </g>
     </g>
    </g>
    <g id="xtick_15">
     <g id="line2d_25">
      <g>
       <use style="stroke:#000000;stroke-width:0.8;" x="122.506048" xlink:href="#m2ee322a36f" y="303.64"/>
      </g>
     </g>
     <g id="text_30">
      <!-- 40 -->
      <g transform="translate(116.143548 318.238437)scale(0.1 -0.1)">
       <use xlink:href="#DejaVuSans-52"/>
       <use x="63.623047" xlink:href="#DejaVuSans-48"/>
      </g>
     </g>
    </g>
    <g id="xtick_16">
     <g id="line2d_26">
      <g>
       <use style="stroke:#000000;stroke-width:0.8;" x="155.641109" xlink:href="#m2ee322a36f" y="303.64"/>
      </g>
     </g>
     <g id="text_31">
      <!-- 60 -->
      <g transform="translate(149.278609 318.238437)scale(0.1 -0.1)">
       <use xlink:href="#DejaVuSans-54"/>
       <use x="63.623047" xlink:href="#DejaVuSans-48"/>
      </g>
     </g>
    </g>
    <g id="xtick_17">
     <g id="line2d_27">
      <g>
       <use style="stroke:#000000;stroke-width:0.8;" x="188.776169" xlink:href="#m2ee322a36f" y="303.64"/>
      </g>
     </g>
     <g id="text_32">
      <!-- 80 -->
      <g transform="translate(182.413669 318.238437)scale(0.1 -0.1)">
       <use xlink:href="#DejaVuSans-56"/>
       <use x="63.623047" xlink:href="#DejaVuSans-48"/>
      </g>
     </g>
    </g>
    <g id="xtick_18">
     <g id="line2d_28">
      <g>
       <use style="stroke:#000000;stroke-width:0.8;" x="221.911229" xlink:href="#m2ee322a36f" y="303.64"/>
      </g>
     </g>
     <g id="text_33">
      <!-- 100 -->
      <g transform="translate(212.367479 318.238437)scale(0.1 -0.1)">
       <use xlink:href="#DejaVuSans-49"/>
       <use x="63.623047" xlink:href="#DejaVuSans-48"/>
       <use x="127.246094" xlink:href="#DejaVuSans-48"/>
      </g>
     </g>
    </g>
    <g id="text_34">
     <!-- n -->
     <g transform="translate(135.076452 331.916562)scale(0.1 -0.1)">
      <use xlink:href="#DejaVuSans-110"/>
     </g>
    </g>
   </g>
   <g id="matplotlib.axis_6">
    <g id="ytick_9">
     <g id="line2d_29">
      <g>
       <use style="stroke:#000000;stroke-width:0.8;" x="48.035" xlink:href="#md187687237" y="296.67958"/>
      </g>
     </g>
     <g id="text_35">
      <!-- 0.5 -->
      <g transform="translate(25.131875 300.478799)scale(0.1 -0.1)">
       <use xlink:href="#DejaVuSans-48"/>
       <use x="63.623047" xlink:href="#DejaVuSans-46"/>
       <use x="95.410156" xlink:href="#DejaVuSans-53"/>
      </g>
     </g>
    </g>
    <g id="ytick_10">
     <g id="line2d_30">
      <g>
       <use style="stroke:#000000;stroke-width:0.8;" x="48.035" xlink:href="#md187687237" y="265.432457"/>
      </g>
     </g>
     <g id="text_36">
      <!-- 1.0 -->
      <g transform="translate(25.131875 269.231676)scale(0.1 -0.1)">
       <use xlink:href="#DejaVuSans-49"/>
       <use x="63.623047" xlink:href="#DejaVuSans-46"/>
       <use x="95.410156" xlink:href="#DejaVuSans-48"/>
      </g>
     </g>
    </g>
    <g id="ytick_11">
     <g id="line2d_31">
      <g>
       <use style="stroke:#000000;stroke-width:0.8;" x="48.035" xlink:href="#md187687237" y="234.185335"/>
      </g>
     </g>
     <g id="text_37">
      <!-- 1.5 -->
      <g transform="translate(25.131875 237.984553)scale(0.1 -0.1)">
       <use xlink:href="#DejaVuSans-49"/>
       <use x="63.623047" xlink:href="#DejaVuSans-46"/>
       <use x="95.410156" xlink:href="#DejaVuSans-53"/>
      </g>
     </g>
    </g>
    <g id="ytick_12">
     <g id="line2d_32">
      <g>
       <use style="stroke:#000000;stroke-width:0.8;" x="48.035" xlink:href="#md187687237" y="202.938212"/>
      </g>
     </g>
     <g id="text_38">
      <!-- 2.0 -->
      <g transform="translate(25.131875 206.737431)scale(0.1 -0.1)">
       <use xlink:href="#DejaVuSans-50"/>
       <use x="63.623047" xlink:href="#DejaVuSans-46"/>
       <use x="95.410156" xlink:href="#DejaVuSans-48"/>
      </g>
     </g>
    </g>
    <g id="text_39">
     <!-- difference |g(x)-f(x)| -->
     <g transform="translate(18.774063 299.303125)rotate(-90)scale(0.1 -0.1)">
      <use xlink:href="#DejaVuSans-100"/>
      <use x="63.476562" xlink:href="#DejaVuSans-105"/>
      <use x="91.259766" xlink:href="#DejaVuSans-102"/>
      <use x="126.464844" xlink:href="#DejaVuSans-102"/>
      <use x="161.669922" xlink:href="#DejaVuSans-101"/>
      <use x="223.193359" xlink:href="#DejaVuSans-114"/>
      <use x="264.275391" xlink:href="#DejaVuSans-101"/>
      <use x="325.798828" xlink:href="#DejaVuSans-110"/>
      <use x="389.177734" xlink:href="#DejaVuSans-99"/>
      <use x="444.158203" xlink:href="#DejaVuSans-101"/>
      <use x="505.681641" xlink:href="#DejaVuSans-32"/>
      <use x="537.46875" xlink:href="#DejaVuSans-124"/>
      <use x="571.160156" xlink:href="#DejaVuSans-103"/>
      <use x="634.636719" xlink:href="#DejaVuSans-40"/>
      <use x="673.650391" xlink:href="#DejaVuSans-120"/>
      <use x="732.830078" xlink:href="#DejaVuSans-41"/>
      <use x="771.84375" xlink:href="#DejaVuSans-45"/>
      <use x="807.927734" xlink:href="#DejaVuSans-102"/>
      <use x="843.132812" xlink:href="#DejaVuSans-40"/>
      <use x="882.146484" xlink:href="#DejaVuSans-120"/>
      <use x="941.326172" xlink:href="#DejaVuSans-41"/>
      <use x="980.339844" xlink:href="#DejaVuSans-124"/>
     </g>
    </g>
    <g id="text_40">
     <!-- 1e−7 -->
     <g transform="translate(48.035 190.56)scale(0.1 -0.1)">
      <use xlink:href="#DejaVuSans-49"/>
      <use x="63.623047" xlink:href="#DejaVuSans-101"/>
      <use x="125.146484" xlink:href="#DejaVuSans-8722"/>
      <use x="208.935547" xlink:href="#DejaVuSans-55"/>
     </g>
    </g>
   </g>
   <g id="line2d_33">
    <path clip-path="url(#p057b00ddb3)" d="M 56.235927 198.563636 
L 57.89268 281.511142 
L 59.549433 214.817504 
L 61.206187 274.997868 
L 62.86294 201.333425 
L 64.519693 282.477516 
L 66.176446 217.175975 
L 67.833199 276.122489 
L 69.489952 204.01866 
L 71.146705 283.415287 
L 72.803458 219.46453 
L 74.460211 277.213099 
L 76.116964 206.622836 
L 77.773717 284.325605 
L 79.43047 221.685977 
L 81.087223 278.271089 
L 82.743976 209.149265 
L 84.400729 285.209558 
L 86.057482 223.842984 
L 87.714235 279.297779 
L 89.370988 211.601087 
L 91.027741 286.068181 
L 92.684494 225.938085 
L 94.341247 280.294421 
L 95.998 213.981281 
L 97.654753 286.902457 
L 99.311506 227.973685 
L 100.968259 281.262204 
L 102.625012 216.292676 
L 104.281765 287.713322 
L 105.938518 229.95207 
L 107.595271 282.202257 
L 109.252024 218.53796 
L 110.908777 288.501663 
L 112.56553 231.875419 
L 114.222283 283.115654 
L 115.879036 220.719687 
L 117.535789 289.268328 
L 119.192542 233.745801 
L 120.849295 284.003414 
L 122.506048 222.840286 
L 124.162801 290.014122 
L 125.819554 235.565187 
L 127.476307 284.866509 
L 129.13306 224.902069 
L 130.789813 290.739812 
L 132.446566 237.335457 
L 134.103319 285.705863 
L 135.760072 226.907236 
L 137.416825 291.446132 
L 139.073578 239.058402 
L 140.730331 286.522357 
L 142.387084 228.857885 
L 144.043837 292.133778 
L 145.700591 240.73573 
L 147.357344 287.316829 
L 149.014097 230.756012 
L 150.67085 292.803418 
L 152.327603 242.369069 
L 153.984356 288.090081 
L 155.641109 232.603525 
L 157.297862 293.455686 
L 158.954615 243.959976 
L 160.611368 288.842875 
L 162.268121 234.40224 
L 163.924874 294.091191 
L 165.581627 245.509937 
L 167.23838 289.575941 
L 168.895133 236.153893 
L 170.551886 294.710514 
L 172.208639 247.020371 
L 173.865392 290.289972 
L 175.522145 237.860139 
L 177.178898 295.314207 
L 178.835651 248.492635 
L 180.492404 290.985635 
L 182.149157 239.522562 
L 183.80591 295.902804 
L 185.462663 249.928028 
L 187.119416 291.663564 
L 188.776169 241.142675 
L 190.432922 296.476811 
L 192.089675 251.327792 
L 193.746428 292.324366 
L 195.403181 242.721925 
L 197.059934 297.036714 
L 198.716687 252.693115 
L 200.37344 292.968623 
L 202.030193 244.261695 
L 203.686946 297.58298 
L 205.343699 254.025136 
L 207.000452 293.596891 
L 208.657205 245.763311 
L 210.313958 298.116054 
L 211.970711 255.324946 
L 213.627464 294.209701 
L 215.284217 247.22804 
L 216.94097 298.636364 
L 218.597723 256.59359 
L 220.254476 294.807563 
" style="fill:none;stroke:#1f77b4;stroke-linecap:square;stroke-width:1.5;"/>
   </g>
   <g id="patch_13">
    <path d="M 48.035 303.64 
L 48.035 193.56 
" style="fill:none;stroke:#000000;stroke-linecap:square;stroke-linejoin:miter;stroke-width:0.8;"/>
   </g>
   <g id="patch_14">
    <path d="M 228.455404 303.64 
L 228.455404 193.56 
" style="fill:none;stroke:#000000;stroke-linecap:square;stroke-linejoin:miter;stroke-width:0.8;"/>
   </g>
   <g id="patch_15">
    <path d="M 48.035 303.64 
L 228.455404 303.64 
" style="fill:none;stroke:#000000;stroke-linecap:square;stroke-linejoin:miter;stroke-width:0.8;"/>
   </g>
   <g id="patch_16">
    <path d="M 48.035 193.56 
L 228.455404 193.56 
" style="fill:none;stroke:#000000;stroke-linecap:square;stroke-linejoin:miter;stroke-width:0.8;"/>
   </g>
   <g id="text_41">
    <!-- μ = 3.45 -->
    <g transform="translate(112.226764 187.56)scale(0.12 -0.12)">
     <use xlink:href="#DejaVuSans-956"/>
     <use x="63.623047" xlink:href="#DejaVuSans-32"/>
     <use x="95.410156" xlink:href="#DejaVuSans-61"/>
     <use x="179.199219" xlink:href="#DejaVuSans-32"/>
     <use x="210.986328" xlink:href="#DejaVuSans-51"/>
     <use x="274.609375" xlink:href="#DejaVuSans-46"/>
     <use x="306.396484" xlink:href="#DejaVuSans-52"/>
     <use x="370.019531" xlink:href="#DejaVuSans-53"/>
    </g>
   </g>
  </g>
  <g id="axes_4">
   <g id="patch_17">
    <path d="M 265.905 303.64 
L 446.325404 303.64 
L 446.325404 193.56 
L 265.905 193.56 
z
" style="fill:#ffffff;"/>
   </g>
   <g id="matplotlib.axis_7">
    <g id="xtick_19">
     <g id="line2d_34">
      <g>
       <use style="stroke:#000000;stroke-width:0.8;" x="274.105927" xlink:href="#m2ee322a36f" y="303.64"/>
      </g>
     </g>
     <g id="text_42">
      <!-- 0 -->
      <g transform="translate(270.924677 318.238437)scale(0.1 -0.1)">
       <use xlink:href="#DejaVuSans-48"/>
      </g>
     </g>
    </g>
    <g id="xtick_20">
     <g id="line2d_35">
      <g>
       <use style="stroke:#000000;stroke-width:0.8;" x="307.240988" xlink:href="#m2ee322a36f" y="303.64"/>
      </g>
     </g>
     <g id="text_43">
      <!-- 20 -->
      <g transform="translate(300.878488 318.238437)scale(0.1 -0.1)">
       <use xlink:href="#DejaVuSans-50"/>
       <use x="63.623047" xlink:href="#DejaVuSans-48"/>
      </g>
     </g>
    </g>
    <g id="xtick_21">
     <g id="line2d_36">
      <g>
       <use style="stroke:#000000;stroke-width:0.8;" x="340.376048" xlink:href="#m2ee322a36f" y="303.64"/>
      </g>
     </g>
     <g id="text_44">
      <!-- 40 -->
      <g transform="translate(334.013548 318.238437)scale(0.1 -0.1)">
       <use xlink:href="#DejaVuSans-52"/>
       <use x="63.623047" xlink:href="#DejaVuSans-48"/>
      </g>
     </g>
    </g>
    <g id="xtick_22">
     <g id="line2d_37">
      <g>
       <use style="stroke:#000000;stroke-width:0.8;" x="373.511109" xlink:href="#m2ee322a36f" y="303.64"/>
      </g>
     </g>
     <g id="text_45">
      <!-- 60 -->
      <g transform="translate(367.148609 318.238437)scale(0.1 -0.1)">
       <use xlink:href="#DejaVuSans-54"/>
       <use x="63.623047" xlink:href="#DejaVuSans-48"/>
      </g>
     </g>
    </g>
    <g id="xtick_23">
     <g id="line2d_38">
      <g>
       <use style="stroke:#000000;stroke-width:0.8;" x="406.646169" xlink:href="#m2ee322a36f" y="303.64"/>
      </g>
     </g>
     <g id="text_46">
      <!-- 80 -->
      <g transform="translate(400.283669 318.238437)scale(0.1 -0.1)">
       <use xlink:href="#DejaVuSans-56"/>
       <use x="63.623047" xlink:href="#DejaVuSans-48"/>
      </g>
     </g>
    </g>
    <g id="xtick_24">
     <g id="line2d_39">
      <g>
       <use style="stroke:#000000;stroke-width:0.8;" x="439.781229" xlink:href="#m2ee322a36f" y="303.64"/>
      </g>
     </g>
     <g id="text_47">
      <!-- 100 -->
      <g transform="translate(430.237479 318.238437)scale(0.1 -0.1)">
       <use xlink:href="#DejaVuSans-49"/>
       <use x="63.623047" xlink:href="#DejaVuSans-48"/>
       <use x="127.246094" xlink:href="#DejaVuSans-48"/>
      </g>
     </g>
    </g>
    <g id="text_48">
     <!-- n -->
     <g transform="translate(352.946452 331.916562)scale(0.1 -0.1)">
      <use xlink:href="#DejaVuSans-110"/>
     </g>
    </g>
   </g>
   <g id="matplotlib.axis_8">
    <g id="ytick_13">
     <g id="line2d_40">
      <g>
       <use style="stroke:#000000;stroke-width:0.8;" x="265.905" xlink:href="#md187687237" y="298.63638"/>
      </g>
     </g>
     <g id="text_49">
      <!-- 0.0 -->
      <g transform="translate(243.001875 302.435599)scale(0.1 -0.1)">
       <use xlink:href="#DejaVuSans-48"/>
       <use x="63.623047" xlink:href="#DejaVuSans-46"/>
       <use x="95.410156" xlink:href="#DejaVuSans-48"/>
      </g>
     </g>
    </g>
    <g id="ytick_14">
     <g id="line2d_41">
      <g>
       <use style="stroke:#000000;stroke-width:0.8;" x="265.905" xlink:href="#md187687237" y="267.505081"/>
      </g>
     </g>
     <g id="text_50">
      <!-- 0.2 -->
      <g transform="translate(243.001875 271.304299)scale(0.1 -0.1)">
       <use xlink:href="#DejaVuSans-48"/>
       <use x="63.623047" xlink:href="#DejaVuSans-46"/>
       <use x="95.410156" xlink:href="#DejaVuSans-50"/>
      </g>
     </g>
    </g>
    <g id="ytick_15">
     <g id="line2d_42">
      <g>
       <use style="stroke:#000000;stroke-width:0.8;" x="265.905" xlink:href="#md187687237" y="236.373782"/>
      </g>
     </g>
     <g id="text_51">
      <!-- 0.4 -->
      <g transform="translate(243.001875 240.173)scale(0.1 -0.1)">
       <use xlink:href="#DejaVuSans-48"/>
       <use x="63.623047" xlink:href="#DejaVuSans-46"/>
       <use x="95.410156" xlink:href="#DejaVuSans-52"/>
      </g>
     </g>
    </g>
    <g id="ytick_16">
     <g id="line2d_43">
      <g>
       <use style="stroke:#000000;stroke-width:0.8;" x="265.905" xlink:href="#md187687237" y="205.242482"/>
      </g>
     </g>
     <g id="text_52">
      <!-- 0.6 -->
      <g transform="translate(243.001875 209.041701)scale(0.1 -0.1)">
       <use xlink:href="#DejaVuSans-48"/>
       <use x="63.623047" xlink:href="#DejaVuSans-46"/>
       <use x="95.410156" xlink:href="#DejaVuSans-54"/>
      </g>
     </g>
    </g>
   </g>
   <g id="line2d_44">
    <path clip-path="url(#ped0d239696)" d="M 274.105927 298.636345 
L 275.76268 298.636356 
L 277.419433 298.636311 
L 279.076187 298.636305 
L 280.73294 298.636189 
L 282.389693 298.636364 
L 284.046446 298.636329 
L 285.703199 298.636289 
L 287.359952 298.636239 
L 289.016705 298.636105 
L 290.673458 298.636039 
L 292.330211 298.635569 
L 293.986964 298.636121 
L 295.643717 298.635579 
L 297.30047 298.635065 
L 298.957223 298.634016 
L 300.613976 298.632765 
L 302.270729 298.629239 
L 303.927482 298.627853 
L 305.584235 298.615642 
L 307.240988 298.632493 
L 308.897741 298.624223 
L 310.554494 298.615161 
L 312.211247 298.601968 
L 313.868 298.573408 
L 315.524753 298.543772 
L 317.181506 298.445273 
L 318.838259 298.442263 
L 320.495012 298.126024 
L 322.151765 298.477585 
L 323.808518 298.144668 
L 325.465271 297.825435 
L 327.122024 297.188878 
L 328.778777 296.390179 
L 330.43553 294.27785 
L 332.092283 293.140285 
L 333.749036 285.750368 
L 335.405789 293.637272 
L 337.062542 283.524891 
L 338.719295 277.014383 
L 340.376048 254.163253 
L 342.032801 258.716711 
L 343.689554 211.476826 
L 345.346307 271.509525 
L 347.00306 272.855738 
L 348.659813 234.558513 
L 350.316566 290.201615 
L 351.973319 281.966382 
L 353.630072 279.100271 
L 355.286825 252.144738 
L 356.943578 289.082372 
L 358.600331 274.624865 
L 360.257084 297.70052 
L 361.913837 295.846249 
L 363.570591 295.01063 
L 365.227344 290.302731 
L 366.884097 294.471042 
L 368.54085 286.138413 
L 370.197603 281.6228 
L 371.854356 261.643887 
L 373.511109 272.76198 
L 375.167862 233.593806 
L 376.824615 285.388131 
L 378.481368 273.079539 
L 380.138121 267.079997 
L 381.794874 229.270134 
L 383.451627 267.581153 
L 385.10838 246.29528 
L 386.765133 222.625785 
L 388.421886 198.563636 
L 390.078639 233.981503 
L 391.735392 291.715331 
L 393.392145 285.082937 
L 395.048898 282.182351 
L 396.705651 259.867527 
L 398.362404 287.289007 
L 400.019157 268.253323 
L 401.67591 284.174338 
L 403.332663 258.563219 
L 404.989416 268.457814 
L 406.646169 225.973823 
L 408.302922 297.841664 
L 409.959675 297.322465 
L 411.616428 296.300109 
L 413.273181 294.983169 
L 414.929934 291.618963 
L 416.586687 289.539562 
L 418.24344 277.796798 
L 419.900193 288.26681 
L 421.556946 268.580079 
L 423.213699 265.993502 
L 424.870452 223.55704 
L 426.527205 283.701971 
L 428.183958 275.746188 
L 429.840711 254.976048 
L 431.497464 247.207928 
L 433.154217 200.268337 
L 434.81097 242.709962 
L 436.467723 284.671338 
L 438.124476 267.4917 
" style="fill:none;stroke:#1f77b4;stroke-linecap:square;stroke-width:1.5;"/>
   </g>
   <g id="patch_18">
    <path d="M 265.905 303.64 
L 265.905 193.56 
" style="fill:none;stroke:#000000;stroke-linecap:square;stroke-linejoin:miter;stroke-width:0.8;"/>
   </g>
   <g id="patch_19">
    <path d="M 446.325404 303.64 
L 446.325404 193.56 
" style="fill:none;stroke:#000000;stroke-linecap:square;stroke-linejoin:miter;stroke-width:0.8;"/>
   </g>
   <g id="patch_20">
    <path d="M 265.905 303.64 
L 446.325404 303.64 
" style="fill:none;stroke:#000000;stroke-linecap:square;stroke-linejoin:miter;stroke-width:0.8;"/>
   </g>
   <g id="patch_21">
    <path d="M 265.905 193.56 
L 446.325404 193.56 
" style="fill:none;stroke:#000000;stroke-linecap:square;stroke-linejoin:miter;stroke-width:0.8;"/>
   </g>
   <g id="text_53">
    <!-- μ = 3.7 -->
    <g transform="translate(333.914264 187.56)scale(0.12 -0.12)">
     <use xlink:href="#DejaVuSans-956"/>
     <use x="63.623047" xlink:href="#DejaVuSans-32"/>
     <use x="95.410156" xlink:href="#DejaVuSans-61"/>
     <use x="179.199219" xlink:href="#DejaVuSans-32"/>
     <use x="210.986328" xlink:href="#DejaVuSans-51"/>
     <use x="274.609375" xlink:href="#DejaVuSans-46"/>
     <use x="306.396484" xlink:href="#DejaVuSans-55"/>
    </g>
   </g>
  </g>
 </g>
 <defs>
  <clipPath id="pba9c9c5045">
   <rect height="110.08" width="180.420404" x="48.035" y="26.16"/>
  </clipPath>
  <clipPath id="p03d165f8da">
   <rect height="110.08" width="180.420404" x="265.905" y="26.16"/>
  </clipPath>
  <clipPath id="p057b00ddb3">
   <rect height="110.08" width="180.420404" x="48.035" y="193.56"/>
  </clipPath>
  <clipPath id="ped0d239696">
   <rect height="110.08" width="180.420404" x="265.905" y="193.56"/>
  </clipPath>
 </defs>
</svg>
